<svg xmlns="http://www.w3.org/2000/svg" viewBox="0 0 960 680" role="img" aria-label="Architectural illustration of a contemporary courtyard villa"><rect width="960" height="680" fill="#e5ece7"/><path d="M0 490Q220 445 455 475T960 445V680H0Z" fill="#b9cdb8"/><rect x="175" y="330" width="580" height="215" fill="#f1e9db"/><path d="M500 210h255v335H500Z" fill="#d9dbd2"/><path d="M155 325h365v35H155ZM485 200h290v40H485Z" fill="#f8f2e9"/><path d="M755 210l72 46v289h-72" fill="#aebcb7"/><rect x="210" y="380" width="255" height="125" fill="#365d65"/><rect x="540" y="277" width="172" height="118" fill="#51777c"/><rect x="549" y="440" width="102" height="105" fill="#846e51"/><g stroke="#d3ded8" stroke-width="6"><path d="M293 380v125M382 380v125M600 277v118M655 277v118"/></g><path d="M140 545h650v35H140Z" fill="#ded3bd"/><path d="M335 580h480l66 67H270Z" fill="#99bdc5"/><path d="M351 598h435l31 32H322Z" fill="#bbd5d9"/><path d="M154 580l110 100H0V609" fill="#d8d5bd"/><g fill="#7c9d75"><circle cx="88" cy="400" r="66"/><circle cx="820" cy="403" r="68"/><circle cx="881" cy="479" r="45"/></g><g stroke="#657e5e" stroke-width="10"><path d="M88 444v119M820 445v115M881 505v65"/></g><g fill="#9caa87"><ellipse cx="202" cy="602" rx="45" ry="15"/><ellipse cx="117" cy="638" rx="47" ry="15"/></g><text x="905" y="660" text-anchor="end" font-family="sans-serif" font-size="13" letter-spacing="2" fill="#526b77">VILLA / ARCHITECTURAL ILLUSTRATION</text></svg>
